HIERARCHY
ROOT Hips
{
	OFFSET -0.001795 -0.223333 0.028219
	CHANNELS 6 Xposition Yposition Zposition Zrotation Yrotation Xrotation 
	JOINT LeftUpLeg
	{
		OFFSET 0.069520 -0.091406 -0.006815
		CHANNELS 3 Zrotation Yrotation Xrotation
		JOINT LeftLeg
		{
			OFFSET 0.034277 -0.375199 -0.004496
			CHANNELS 3 Zrotation Yrotation Xrotation
			JOINT LeftFoot
			{
				OFFSET -0.013596 -0.397961 -0.043693
				CHANNELS 3 Zrotation Yrotation Xrotation
				JOINT LeftToe
				{
					OFFSET 0.026358 -0.055791 0.119288
					CHANNELS 3 Zrotation Yrotation Xrotation
					End Site
					{
						OFFSET 0.000000 0.000000 0.000000
					}
				}
			}
		}
	}
	JOINT RightUpLeg
	{
		OFFSET -0.067670 -0.090522 -0.004320
		CHANNELS 3 Zrotation Yrotation Xrotation
		JOINT RightLeg
		{
			OFFSET -0.038290 -0.382569 -0.008850
			CHANNELS 3 Zrotation Yrotation Xrotation
			JOINT RightFoot
			{
				OFFSET 0.015774 -0.398415 -0.042312
				CHANNELS 3 Zrotation Yrotation Xrotation
				JOINT RightToe
				{
					OFFSET -0.025372 -0.048144 0.123348
					CHANNELS 3 Zrotation Yrotation Xrotation
					End Site
					{
						OFFSET 0.000000 0.000000 0.000000
					}
				}
			}
		}
	}
	JOINT Spine
	{
		OFFSET -0.002533 0.108963 -0.026696
		CHANNELS 3 Zrotation Yrotation Xrotation
		JOINT Spine1
		{
			OFFSET 0.005487 0.135180 0.001092
			CHANNELS 3 Zrotation Yrotation Xrotation
			JOINT Spine2
			{
				OFFSET 0.001457 0.052922 0.025425
				CHANNELS 3 Zrotation Yrotation Xrotation
				JOINT Neck
				{
					OFFSET -0.002778 0.213870 -0.042857
					CHANNELS 3 Zrotation Yrotation Xrotation
					JOINT Head
					{
						OFFSET 0.005152 0.064970 0.051349
						CHANNELS 3 Zrotation Yrotation Xrotation
						End Site
						{
							OFFSET 0.000000 0.000000 0.000000
						}
					}
				}
				JOINT LeftShoulder
				{
					OFFSET 0.078845 0.121749 -0.034090
					CHANNELS 3 Zrotation Yrotation Xrotation
					JOINT LeftArm
					{
						OFFSET 0.090977 0.030469 -0.008868
						CHANNELS 3 Zrotation Yrotation Xrotation
						JOINT LeftForeArm
						{
							OFFSET 0.259612 -0.012772 -0.027456
							CHANNELS 3 Zrotation Yrotation Xrotation
							JOINT LeftHand
							{
								OFFSET 0.249234 0.008986 -0.001171
								CHANNELS 3 Zrotation Yrotation Xrotation
								End Site
								{
									OFFSET 0.000000 0.000000 0.000000
								}
							}
						}
					}
				}
				JOINT RightShoulder
				{
					OFFSET -0.081759 0.118833 -0.038615
					CHANNELS 3 Zrotation Yrotation Xrotation
					JOINT RightArm
					{
						OFFSET -0.096012 0.032551 -0.009143
						CHANNELS 3 Zrotation Yrotation Xrotation
						JOINT RightForeArm
						{
							OFFSET -0.253742 -0.013329 -0.021401
							CHANNELS 3 Zrotation Yrotation Xrotation
							JOINT RightHand
							{
								OFFSET -0.255298 0.007772 -0.005559
								CHANNELS 3 Zrotation Yrotation Xrotation
								End Site
								{
									OFFSET 0.000000 0.000000 0.000000
								}
							}
						}
					}
				}
			}
		}
	}
}
MOTION
Frames: 16
Frame Time: 0.050000
0.000000 0.937796 0.000000 -2.477312 -42.537567 2.357761 -0.459796 0.094554 -22.299495 -1.652920 0.921545 9.024569 58.262973 50.972286 58.567491 0.000000 0.000000 0.000000 -6.378937 0.924290 0.132479 7.447687 2.091528 25.537413 -3.356390 -9.524704 4.378051 0.000000 0.000000 0.000000 6.574753 -0.646950 13.055652 0.371911 -0.061921 -26.325605 0.463820 29.154541 24.980626 15.334782 -6.855020 -26.602582 0.000000 0.000000 0.000000 -15.656694 -5.636768 2.245635 -44.338227 -35.314749 5.102685 173.697692 -27.935667 -133.653355 0.000000 0.000000 0.000000 18.645769 7.495660 3.031322 78.946887 48.661899 28.441734 165.446258 45.281600 162.648081 0.000000 0.000000 0.000000 
-0.021689 0.935181 0.028689 -3.696292 -39.044181 2.663793 1.275367 0.104210 -19.609591 -2.809455 0.998337 7.199833 60.286954 52.154131 59.158912 0.000000 0.000000 0.000000 -6.165033 0.807057 0.273345 10.351559 1.368387 26.189328 -3.971774 -11.928587 6.576214 0.000000 0.000000 0.000000 7.317831 -0.751550 11.093657 1.738685 -0.206313 -26.948319 1.669651 31.950161 26.015940 18.242615 -8.773377 -23.775401 0.000000 0.000000 0.000000 -14.973269 -7.036786 1.870464 -42.071451 -37.022510 5.324504 170.470607 -27.123035 -125.345813 0.000000 0.000000 0.000000 18.257072 6.522105 3.639038 74.203455 54.170960 31.140455 168.429091 48.584215 173.872376 0.000000 0.000000 0.000000 
-0.040112 0.938811 0.055279 -2.643083 -33.167291 2.170840 -0.156418 -0.622837 -17.231873 -3.642083 1.107950 7.553247 49.202956 51.912383 44.214117 0.000000 0.000000 0.000000 -6.491938 0.754483 -1.337828 10.360023 0.776458 25.425667 -6.739042 -15.222487 2.638796 0.000000 0.000000 0.000000 7.667304 -0.793427 9.992482 -0.397759 0.370609 -27.477549 3.280963 26.485927 26.949114 15.984413 -7.216768 -25.136720 0.000000 0.000000 0.000000 -16.923414 -5.645938 1.378855 -40.555612 -36.836477 4.994624 166.599742 -23.625832 -104.333253 0.000000 0.000000 0.000000 11.241084 9.073989 4.043835 72.434819 58.362135 33.869985 178.172409 47.107298 -165.433973 0.000000 0.000000 0.000000 
-0.054293 0.942316 0.079142 -2.748424 -28.328278 3.203422 -0.922341 -0.926370 -16.918578 -3.768851 0.986268 7.078322 46.489134 51.980857 39.817589 0.000000 0.000000 0.000000 -6.168776 0.695172 -2.711202 11.202349 0.154612 24.806724 -9.482163 -21.074263 4.186887 0.000000 0.000000 0.000000 8.354524 -0.914128 9.955333 1.097817 0.448354 -29.960816 1.168338 27.980236 28.066268 17.173253 -7.000480 -26.581396 0.000000 0.000000 0.000000 -13.404954 -4.342761 -0.016485 -41.223887 -41.914363 6.717870 164.806898 -23.851301 -102.260373 0.000000 0.000000 0.000000 11.942750 8.518529 4.636497 69.072606 65.875900 39.000227 -171.587802 46.818181 -138.944250 0.000000 0.000000 0.000000 
-0.064722 0.947831 0.099645 -2.434307 -22.807972 2.347921 -1.394146 -1.090737 -14.144644 -4.502571 1.005787 6.519490 38.793816 49.628407 30.668706 0.000000 0.000000 0.000000 -5.225937 0.665392 -5.080159 8.969060 0.394046 27.337243 -8.977876 -21.575587 8.333589 0.000000 0.000000 0.000000 8.168937 -0.911598 9.358532 1.655161 0.325345 -29.405161 0.987531 28.179354 28.307945 17.671122 -6.666358 -26.489710 0.000000 0.000000 0.000000 -10.689604 -6.521716 0.501403 -38.926898 -42.300862 6.135838 161.246452 -20.441473 -86.220070 0.000000 0.000000 0.000000 8.625900 7.423613 4.153544 73.686554 72.501650 50.710022 -159.157322 44.112124 -108.062801 0.000000 0.000000 0.000000 
-0.071529 0.954074 0.116675 -1.776061 -17.110425 1.554756 -2.891461 -1.250928 -12.144675 -3.071619 0.545655 5.678430 33.350086 45.830465 26.666557 0.000000 0.000000 0.000000 -5.415369 0.673960 -6.207676 10.821777 -0.641970 29.388037 -10.034422 -23.639946 9.995838 0.000000 0.000000 0.000000 7.469099 -0.934831 9.651639 -0.252436 0.700284 -29.432008 1.508290 24.886792 27.583958 17.408887 -6.265082 -27.087849 0.000000 0.000000 0.000000 -9.475958 -4.980216 -0.108336 -38.912179 -45.022782 6.880623 158.366725 -20.480989 -79.854104 0.000000 0.000000 0.000000 4.543262 8.871935 4.052687 70.008881 78.156942 54.157522 -147.701837 38.578533 -79.557048 0.000000 0.000000 0.000000 
-0.076096 0.958601 0.130724 -1.613889 -10.340390 1.574613 -4.031876 -1.276380 -10.733701 -1.172271 0.092968 4.967331 26.232996 40.247606 20.457035 0.000000 0.000000 0.000000 -5.720542 0.668725 -7.411592 11.120805 -1.601067 29.722885 -11.522764 -26.274719 7.603097 0.000000 0.000000 0.000000 7.343469 -0.975383 9.327941 0.091939 0.628618 -28.794076 -0.143817 24.453110 27.023674 18.944489 -6.094723 -28.845108 0.000000 0.000000 0.000000 -5.563851 -6.956902 0.877131 -38.510961 -45.469427 6.257956 154.565448 -17.478642 -66.223901 0.000000 0.000000 0.000000 3.495637 7.614869 3.606918 55.755580 83.647248 48.245361 -139.487805 30.948382 -53.152003 0.000000 0.000000 0.000000 
-0.079459 0.961089 0.142906 -1.259708 -6.269642 2.065044 -4.852207 -1.312788 -10.416835 -0.062162 -0.104197 4.049459 23.701663 37.485153 19.323902 0.000000 0.000000 0.000000 -5.623483 0.734891 -9.374510 8.705787 -1.277750 26.682730 -9.135681 -21.976629 4.499126 0.000000 0.000000 0.000000 7.712111 -1.034806 9.050515 -1.241012 0.958770 -30.031977 1.087612 23.838889 28.449932 16.735295 -4.371284 -29.094812 0.000000 0.000000 0.000000 -5.401009 -6.730322 0.620394 -35.718097 -45.760782 5.203341 150.798178 -17.157980 -60.353728 0.000000 0.000000 0.000000 -2.121857 7.545510 2.238439 18.183822 84.467539 16.692655 -134.940244 23.607864 -34.321433 0.000000 0.000000 0.000000 
-0.082105 0.961026 0.154213 -0.804895 -0.263498 2.485100 -5.751867 -1.287046 -9.771966 1.545489 -0.334953 3.475856 18.295968 31.754330 14.838217 0.000000 0.000000 0.000000 -4.931966 0.664050 -9.119829 5.615964 -0.780330 19.420542 -6.444758 -16.186447 2.085089 0.000000 0.000000 0.000000 8.892334 -1.209252 8.958017 -3.960409 1.493883 -28.570608 0.424341 22.994830 25.634431 16.803086 -4.210074 -27.732897 0.000000 0.000000 0.000000 -6.207046 -10.509722 1.489442 -31.365165 -43.064589 3.686070 147.877339 -15.958789 -55.137534 0.000000 0.000000 0.000000 -1.653479 7.572848 2.488941 -12.434367 81.966806 -9.182841 -131.738383 21.811802 -28.284646 0.000000 0.000000 0.000000 
-0.083646 0.959115 0.164539 0.505757 4.692361 2.902985 -7.138261 -1.131526 -8.290179 2.139024 -0.285823 1.263602 14.571412 27.094380 11.948258 0.000000 0.000000 0.000000 -5.306234 0.546149 -8.754206 3.992243 -0.549215 14.882436 -4.457289 -11.701147 2.815788 0.000000 0.000000 0.000000 8.693649 -1.298372 9.333497 -5.651699 1.780620 -30.253211 0.068909 22.638206 25.986669 18.143053 -4.960478 -26.745948 0.000000 0.000000 0.000000 -6.818525 -11.054798 1.183101 -28.650595 -42.554290 2.789161 145.905999 -16.024763 -54.111396 0.000000 0.000000 0.000000 -1.029780 8.275119 3.014222 -17.493097 78.520949 -12.034471 -131.294955 19.473466 -22.230041 0.000000 0.000000 0.000000 
-0.084010 0.957275 0.173416 1.768274 10.660886 3.982622 -8.016955 -1.130572 -8.234146 1.835882 -0.182305 0.302132 11.027464 22.107576 9.508079 0.000000 0.000000 0.000000 -5.473804 0.397412 -7.817532 3.665212 -0.664023 13.073877 -5.344476 -13.682793 3.752284 0.000000 0.000000 0.000000 9.017717 -1.295434 8.354831 -7.683344 2.124908 -29.916414 -1.187278 22.000044 24.289616 18.593889 -5.016757 -25.741970 0.000000 0.000000 0.000000 -6.380681 -12.844736 1.533427 -28.367826 -42.294269 2.594190 144.975563 -15.618101 -53.079142 0.000000 0.000000 0.000000 1.166135 7.675180 3.697419 -18.296667 75.515924 -11.639923 -131.811724 20.000628 -22.187878 0.000000 0.000000 0.000000 
-0.083184 0.956843 0.180470 2.731522 14.235084 4.851816 -7.924256 -1.106001 -8.277310 1.204087 -0.045438 -1.204605 8.311140 18.410391 10.534279 0.000000 0.000000 0.000000 -6.110245 0.268671 -7.346691 3.675002 -0.755895 11.940683 -5.951988 -14.898404 5.158480 0.000000 0.000000 0.000000 9.013904 -1.231114 7.515021 -7.986769 2.220240 -29.079890 -2.537658 22.276117 23.596822 19.516381 -4.500167 -28.106786 0.000000 0.000000 0.000000 -6.222367 -13.508709 1.458590 -28.669821 -40.755606 2.417113 145.096190 -14.426099 -50.911759 0.000000 0.000000 0.000000 2.393908 8.127537 4.558307 -19.612838 75.352203 -12.285442 -132.064781 21.424395 -23.903343 0.000000 0.000000 0.000000 
-0.081560 0.957854 0.186110 3.093012 17.586296 5.932075 -7.490179 -1.196413 -9.098925 0.511868 0.014603 -1.458345 5.986809 15.347456 10.922439 0.000000 0.000000 0.000000 -5.943417 0.202834 -6.617748 4.445395 -0.995272 10.407642 -7.598673 -18.255417 6.552259 0.000000 0.000000 0.000000 9.187939 -1.177435 6.577676 -8.619650 2.273042 -29.193797 -2.339742 22.509073 24.136152 20.029743 -4.217012 -28.951234 0.000000 0.000000 0.000000 -6.290101 -14.480343 1.431171 -29.617004 -39.508321 2.384377 145.711577 -12.813397 -47.913724 0.000000 0.000000 0.000000 3.321536 7.750689 4.952436 -16.149724 74.446042 -9.382176 -134.513785 21.476079 -23.836697 0.000000 0.000000 0.000000 
-0.079406 0.958935 0.191211 3.481781 20.566936 6.979447 -7.237052 -1.278580 -9.776152 0.095778 0.070322 -2.601849 3.821136 13.164792 13.103251 0.000000 0.000000 0.000000 -6.023403 0.132647 -6.205619 5.327677 -1.301421 9.999715 -8.910282 -21.088564 6.382672 0.000000 0.000000 0.000000 8.791269 -1.140733 6.295306 -8.173277 2.217656 -28.769822 -2.999229 22.243645 23.555737 19.768605 -3.549054 -29.757713 0.000000 0.000000 0.000000 -6.418277 -14.060755 0.984385 -30.376676 -38.155932 2.398995 145.953542 -11.299511 -43.985195 0.000000 0.000000 0.000000 4.574183 7.313929 5.466872 -13.515781 75.742721 -7.654129 -135.634323 21.855229 -23.989741 0.000000 0.000000 0.000000 
-0.076396 0.958664 0.196220 3.838601 23.482226 7.365192 -7.314586 -1.316413 -10.026623 0.186717 0.063846 -2.742085 1.625960 10.780940 14.160080 0.000000 0.000000 0.000000 -6.450373 0.009290 -5.403529 5.799691 -1.468001 9.116842 -9.947045 -22.692135 8.202314 0.000000 0.000000 0.000000 8.707746 -1.121899 6.038329 -8.316733 2.234969 -28.570012 -3.083246 22.313044 23.433992 19.303497 -3.104719 -29.207926 0.000000 0.000000 0.000000 -7.383893 -14.706226 0.520803 -30.628066 -36.204665 2.403590 145.075483 -11.696107 -44.776364 0.000000 0.000000 0.000000 6.181628 6.453734 5.952246 -5.455363 76.348439 -1.817893 -137.808113 23.218305 -26.533153 0.000000 0.000000 0.000000 
-0.072779 0.956811 0.201151 4.108197 25.756068 7.944660 -7.401935 -1.484337 -10.925993 0.131122 0.045499 -2.170261 0.320439 9.563205 14.919373 0.000000 0.000000 0.000000 -6.956042 -0.101219 -4.937168 6.691828 -1.781877 8.916868 -10.522484 -23.860062 8.196057 0.000000 0.000000 0.000000 8.303061 -1.075619 5.864694 -8.126010 2.169663 -28.712787 -2.755760 22.410985 23.588559 19.137313 -2.717385 -29.344842 0.000000 0.000000 0.000000 -8.430914 -14.347072 -0.341573 -31.658068 -34.335134 2.522310 144.802225 -12.459130 -46.450800 0.000000 0.000000 0.000000 7.290280 6.125265 6.489120 4.656669 78.335134 6.120703 -140.551824 24.621985 -29.900435 0.000000 0.000000 0.000000 
